<?xml version="1.0" encoding="iso-8859-1"?>
<!-- Generator: Adobe Illustrator 19.0.0, SVG Export Plug-In . SVG Version: 6.00 Build 0)  -->
<svg version="1.1" id="Capa_1" xmlns="http://www.w3.org/2000/svg" xmlns:xlink="http://www.w3.org/1999/xlink" x="0px" y="0px"
	 viewBox="0 0 512 512" style="enable-background:new 0 0 512 512;" xml:space="preserve">
<circle style="fill:#00EFD1;" cx="256" cy="256" r="256"/>
<path style="fill:#00AD95;" d="M512,256c0-68.12-26.613-130.018-70.001-175.884c-0.402-0.425-0.805-0.851-1.21-1.274
	c-1.029-1.073-2.068-2.135-3.115-3.19c-0.3-0.302-0.597-0.607-0.898-0.908c-2.645-2.638-5.349-5.215-8.106-7.735l-74.93,60.352
	c-4.58,3.69-10.19,5.53-15.43,5.06c-19.24-1.74-49.8-5.35-65.49-6.63c-6.26-0.51-11.9,0.02-16.82,1.46
	c-4.92-1.44-10.56-1.97-16.82-1.46c-15.69,1.28-46.25,4.89-65.49,6.63c-5.24,0.47-10.85-1.37-15.43-5.06L83.33,67.008
	c-32.473,29.685-57.258,67.63-71.055,110.507L132.35,299.334c1.719,5.932,5.256,11.934,10.7,17.666
	c10.83,11.42,32.81,32.95,46.24,46.84c3.64,3.78,5.73,9.31,5.73,15.18v125.652C214.565,509.449,234.983,512,256,512
	C397.385,512,512,397.385,512,256z"/>
<path style="fill:#FFB84D;" d="M320.63,260.8c-1.53,3.28-4.42,5.74-8.16,6.92c-2.38,0.75-5.68,1.17-10.01,0.45
	c-0.96-0.17-1.96-0.38-3.02-0.66c-3.6-0.96-7.79-2.66-12.62-5.46c-4.04-2.34-9.22-5.27-14.81-8.4c-0.63-0.35-1.26-0.71-1.9-1.06
	c-2.62-1.47-5.32-2.96-8.01-4.45c-2.05-1.13-4.09-2.26-6.1-3.38c-10.38-5.72-19.91-10.92-24.33-13.33
	c-0.02-0.01-0.05-0.03-0.07-0.03c-0.39-0.21-0.73-0.25-0.98-0.22c-0.16,0.02-0.29,0.07-0.34,0.13c-0.14,0.18-0.05,0.99,0.76,1.64
	l0.56,0.45l18.3,14.74l6.1,4.92l30.69,24.72l4.21,3.39l11.5,9.26c7.57,6.1,11.37,11.67,13.01,16.45c1.29,3.76,1.25,7.04,0.65,9.72
	c-0.01,0-0.01,0.01-0.01,0.01c-0.74,3.28-2.32,5.65-3.32,6.89c-0.74,0.92-1.56,1.72-2.45,2.41v0.01c-3.95,3.11-9.32,4.07-15.17,2.94
	c-5.29-0.99-10.97-3.69-16.37-8.04l-13.7-11.04L256,302.5l-30.69-24.72l-12.75-10.27l-6.04-4.87c-0.75-0.6-1.47-0.49-1.54-0.39
	c-0.07,0.08-0.07,0.58,0.39,1.12c1.08,1.27,2.5,2.9,4.17,4.8c3.16,3.6,7.22,8.17,11.56,13c9.58,10.7,20.47,22.73,25.86,28.61
	c0.49,0.54,0.94,1.02,1.33,1.45c3.01,3.26,5.57,6.3,7.71,9.15c6.07,8.09,8.68,14.66,8.14,20.24c-0.37,3.87-2.27,7.09-5.66,9.58
	c-0.83,0.61-1.66,1.12-2.48,1.54c-11.59,5.91-23-6.02-35.03-18.58c-1.31-1.37-2.68-2.81-4.08-4.3c-6.45-6.83-13.73-14.76-20.3-21.98
	c-4.45-4.88-8.57-9.43-11.9-13.11c-2.44-2.7-4.52-4.99-6.05-6.68c-0.66-0.72-1.55-0.83-1.81-0.65c-0.05,0.03-0.11,0.41,0.22,0.92
	c4.1,6.21,11.84,18.04,18.9,29.25v0.01c2.01,3.19,3.96,6.33,5.76,9.28l0.01,0.01c2.1,3.46,3.99,6.65,5.51,9.34
	c5.08,8.99,6.62,16.36,4.58,21.92c-1.27,3.49-3.95,6.08-7.72,7.49c-12.83,4.76-21.71-6.12-38.9-32.1
	c-11.98-18.11-23.51-33.7-33.64-46.54c-20.43-25.89-35.18-40.54-36.53-41.87L12.26,177.5C26.06,134.63,50.85,96.69,83.32,67
	l74.94,60.36c4.58,3.69,10.19,5.53,15.43,5.06c19.24-1.74,49.8-5.35,65.49-6.63c6.26-0.51,11.9,0.02,16.82,1.46
	c10.85,3.16,18.15,10.74,20.71,21.27c1.21,5,0.27,9.74-2.71,13.7c-1.07,1.41-2.37,2.69-3.88,3.84c-3.59,2.73-8.38,4.7-14.12,5.8
	c-2.78,0.54-5.78,0.87-8.98,0.99c-3.87,0.15-9.66,0.59-15.42,1.09c-3.64,0.32-7.26,0.66-10.4,0.96c2.89,1.76,6.42,3.93,10.4,6.37
	c7.12,4.38,15.65,9.65,24.4,15.11c4.7,2.93,9.47,5.91,14.12,8.84c3.05,1.93,6.04,3.83,8.94,5.67c9.83,6.27,18.46,11.91,23.81,15.69
	c3.3,2.33,6.09,4.59,8.43,6.77c1.92,1.79,3.53,3.53,4.89,5.21C323.67,247.86,323.1,255.48,320.63,260.8z"/>
<path style="fill:#FF9A00;" d="M308.64,327.05c-3.75,2.2-8.46,2.8-13.54,1.82c-5.29-1-10.96-3.71-16.36-8.05l-13.7-11.04l-8.83-7.11
	L256,302.5l-11.08-8.93l-38.4-30.93c-0.75-0.6-1.47-0.49-1.55-0.38c-0.06,0.07-0.06,0.55,0.4,1.11c5.72,6.7,21.05,23.78,32.22,36.11
	c3.78,4.17,7.08,7.79,9.37,10.3c0.5,0.53,0.94,1.01,1.33,1.44c3.01,3.26,5.57,6.3,7.71,9.15c0.07,0.09,0.14,0.18,0.21,0.27v0.01
	c5.92,7.98,8.46,14.45,7.93,19.97c-0.36,3.88-2.27,7.09-5.66,9.58c-0.76,0.56-1.52,1.04-2.28,1.44c-0.07,0.03-0.13,0.07-0.2,0.1
	c-11.59,5.91-23-6.02-35.03-18.58c-1.31-1.37-2.67-2.8-4.07-4.29c-2.19-2.32-4.47-4.76-6.79-7.26
	c-9.14-9.85-18.84-20.58-25.42-27.84c-2.44-2.7-4.52-4.99-6.05-6.68c-0.66-0.72-1.55-0.83-1.81-0.65c-0.05,0.03-0.12,0.4,0.22,0.92
	c6.64,10.06,22.85,34.88,30.18,47.89c5.08,8.99,6.62,16.36,4.58,21.92c-1.27,3.49-3.95,6.09-7.72,7.49
	c-12.83,4.76-21.71-6.12-38.9-32.1c-36.16-54.64-68.14-86.42-70.17-88.41L12.26,177.5c7.39-22.96,17.94-44.5,31.12-64.12L256,284.65
	l0.21,0.17l10.87,8.75l7.33,5.91l27.48,22.13L308.64,327.05z"/>
<path style="fill:#9A4C00;" d="M499.74,177.5l-82.76,66.65c-2.02,1.99-34.01,33.77-70.17,88.41c-8.63,13.05-15.17,22.28-21.16,27.64
	c-5.94,5.32-11.35,6.83-17.74,4.46c-3.77-1.41-6.45-4-7.72-7.49c-2.04-5.56-0.5-12.93,4.58-21.92c1.52-2.69,3.41-5.88,5.51-9.34
	c1.81-2.95,3.76-6.1,5.77-9.3c7.06-11.21,14.8-23.04,18.9-29.25c0.33-0.51,0.27-0.89,0.22-0.92c-0.26-0.18-1.15-0.07-1.81,0.65
	c-1.53,1.69-3.61,3.98-6.05,6.68c-3.33,3.68-7.45,8.23-11.9,13.11c-6.57,7.22-13.85,15.15-20.3,21.98c-1.4,1.49-2.77,2.93-4.08,4.3
	C279,345.72,267.59,357.65,256,351.74c-0.82-0.42-1.65-0.93-2.48-1.54c-3.39-2.49-5.29-5.71-5.66-9.58
	c-0.54-5.58,2.07-12.15,8.14-20.24c2.14-2.85,4.7-5.89,7.71-9.15c0.39-0.43,0.84-0.91,1.33-1.45c5.39-5.88,16.28-17.91,25.86-28.61
	c4.34-4.83,8.4-9.4,11.56-13c1.66-1.89,3.08-3.52,4.15-4.78c0.01-0.01,0.01-0.01,0.02-0.02c0.46-0.54,0.46-1.04,0.39-1.12
	c-0.02-0.03-0.11-0.07-0.25-0.07c-0.28-0.03-0.78,0.05-1.29,0.46l-6.04,4.87l-12.75,10.27L256,302.5l-9.04,7.28l-13.7,11.04
	c-5.4,4.35-11.08,7.05-16.37,8.04c-5.85,1.13-11.22,0.17-15.17-2.95c-0.89-0.69-1.71-1.49-2.45-2.41c-1-1.24-2.58-3.61-3.32-6.89
	c-0.61-2.68-0.66-5.96,0.64-9.73c1.64-4.78,5.44-10.35,13.01-16.45l11.5-9.26l4.21-3.39L256,253.06l6.1-4.92l8.01-6.45l4.56-3.68
	l6.29-5.06c0.81-0.65,0.9-1.46,0.76-1.64c-0.05-0.06-0.18-0.11-0.34-0.13c-0.27-0.03-0.63,0.02-1.05,0.25
	c-1.28,0.7-2.99,1.63-5.03,2.74c-1.55,0.86-3.3,1.81-5.19,2.84c-4.17,2.29-9.04,4.96-14.11,7.75c-2.01,1.12-4.05,2.25-6.1,3.38
	c-9.18,5.08-18.36,10.22-24.72,13.91c-4.83,2.8-9.02,4.5-12.62,5.46c-1.06,0.28-2.06,0.49-3.02,0.66c-4.33,0.72-7.63,0.3-10.01-0.45
	c-3.74-1.18-6.63-3.64-8.16-6.92c-3.46-7.46-3.19-19.44,17.76-34.22c3.46-2.44,8.29-5.66,13.93-9.33c2.68-1.74,5.55-3.59,8.54-5.5
	c7.66-4.9,16.13-10.22,24.4-15.37c4.84-3.02,9.61-5.98,14.12-8.77c5.47-3.38,10.55-6.5,14.86-9.15c2.14-1.31,4.1-2.51,5.82-3.56
	c-1.4-0.13-2.9-0.28-4.45-0.42c-5.35-0.5-11.34-1.02-16.23-1.35c-1.92-0.12-3.67-0.22-5.14-0.28c-3.2-0.12-6.2-0.45-8.98-0.99
	c-8.15-1.57-14.4-4.88-18-9.64c-2.98-3.96-3.92-8.7-2.71-13.7c0.55-2.27,1.32-4.4,2.31-6.38c3.56-7.21,9.89-12.41,18.4-14.89
	c4.92-1.44,10.56-1.97,16.82-1.46c15.69,1.28,46.25,4.89,65.49,6.63c5.24,0.47,10.85-1.37,15.43-5.06L428.68,67
	C461.15,96.69,485.94,134.63,499.74,177.5z"/>
<path style="fill:#703700;" d="M499.74,177.5l-82.76,66.65c-2.03,1.99-34.01,33.77-70.17,88.41c-8.63,13.05-15.17,22.28-21.16,27.64
	c-5.94,5.32-11.35,6.83-17.74,4.46c-3.77-1.4-6.45-4-7.72-7.49c-2.04-5.56-0.5-12.93,4.58-21.92c7.33-13.01,23.54-37.83,30.18-47.89
	c0.34-0.52,0.27-0.89,0.22-0.92c-0.26-0.18-1.15-0.07-1.81,0.65c-1.53,1.69-3.61,3.98-6.05,6.68c-6.58,7.26-16.28,17.99-25.42,27.84
	c-2.32,2.5-4.6,4.94-6.79,7.26c-1.4,1.49-2.76,2.92-4.07,4.29c-11.96,12.49-23.31,24.35-34.83,18.68c-0.07-0.03-0.13-0.06-0.2-0.1
	c-0.82-0.42-1.65-0.93-2.48-1.54c-3.39-2.49-5.3-5.7-5.66-9.58c-0.54-5.58,2.07-12.15,8.14-20.25c0.07-0.09,0.14-0.18,0.21-0.28
	c2.09-2.77,4.59-5.72,7.5-8.87c0.39-0.43,0.83-0.91,1.33-1.44c2.29-2.51,5.59-6.13,9.37-10.3c11.16-12.32,26.47-29.37,32.2-36.09
	c0.01-0.01,0.01-0.01,0.02-0.02c0.46-0.56,0.46-1.04,0.4-1.11c-0.02-0.03-0.12-0.07-0.26-0.08c-0.29-0.03-0.78,0.06-1.29,0.46
	l-38.4,30.93l-10.87,8.76L256,302.5l-9.04,7.28l-13.7,11.04c-5.4,4.34-11.07,7.05-16.36,8.05c-5.08,0.98-9.79,0.38-13.54-1.82
	l6.75-5.44l27.48-22.13l7.33-5.91l11.08-8.92l0.21-0.17l53.88-43.4l7.2-5.8l40.55-32.66l110.78-89.24
	C481.8,133,492.35,154.54,499.74,177.5z"/>
<path style="fill:#FFDCA8;" d="M325.65,355.02v5.18l0.01,142.21C303.51,508.66,280.15,512,256,512c-21.01,0-41.44-2.53-60.98-7.31
	V379.02c0-5.87-2.09-11.4-5.73-15.18c-13.43-13.89-35.41-35.42-46.24-46.84c-9.6-10.11-13.3-21.06-11.5-30.98
	c0.8-4.43,2.69-8.65,5.65-12.51c3.13-4.08,7.41-6.32,12.37-6.48c8-0.25,16.97,4.86,25.21,14.34c4.14,4.76,12.08,12.99,17.79,18.83
	c-2.85-21.91-9.72-76.13-10.99-96.03c-1.63-25.58,7.54-33.31,15.51-35.29c3.52-0.87,7.25-0.16,10.52,2.01
	c4.08,2.72,9.43,9.02,11.66,23.53c0.94,6.06,2.31,14.28,3.79,22.83c2.71,15.78,5.76,32.7,6.96,39.33c0.09,0.46,0.28,0.79,0.47,0.97
	c0.11,0.12,0.23,0.18,0.31,0.18c0.23,0,0.8-0.57,0.8-1.61v-91.64c0-11.26,2.62-18.14,6-22.34l0.01-0.01
	c4.62-5.74,10.66-6.44,13.27-6.43c11.14-0.01,19.23,11.83,19.24,28.15v41.37l-0.01,31.79v19.58c0,0.95,0.53,1.44,0.66,1.44
	c0.11,0,0.49-0.32,0.62-1c0.18-0.96,0.39-2.1,0.62-3.38c0.72-4.06,1.65-9.56,2.66-15.64c0.21-1.25,0.42-2.54,0.63-3.84
	c1.27-7.71,2.6-16.01,3.76-23.28c1.18-7.43,2.16-13.79,2.69-17.31c0.87-5.88,1.94-10.9,3.23-15.12c0.43-1.42,0.89-2.74,1.37-3.98
	c2.21-5.64,4.96-9.46,8.34-11.68c3.25-2.13,6.95-2.68,11.01-1.6c14.93,3.96,12.66,21.42,10.26,39.9
	c-1.23,9.54-2.99,21.34-4.66,32.25c-1.2,7.73-2.35,15.01-3.25,20.71c-0.51,3.2-0.95,5.96-1.28,8.12c-0.05,0.27-0.09,0.54-0.13,0.79
	c-0.02,0.15-0.03,0.29-0.03,0.42c0.02,0.76,0.4,1.31,0.65,1.39c0.06,0.02,0.4-0.17,0.58-0.74c1.82-5.67,4.96-15.4,8.35-25.48
	c3.48-10.34,7.21-21.04,10.01-28.07c3.82-9.6,8.6-15.42,14.2-17.32c3.53-1.2,7.22-0.73,10.69,1.32c11.75,7.01,8.84,20.74-0.61,50.42
	C330.62,307.35,325.93,352.2,325.65,355.02z"/>
<path style="fill:#FFC56E;" d="M325.65,355.02v5.18l0.01,142.21c-22.09,6.23-45.38,9.57-69.46,9.59V351.64l0.01-31V136.66
	c8.3,3.13,13.9,13.61,13.91,27.19l-0.01,92.74c0,0.96,0.54,1.45,0.67,1.45c0.09,0,0.47-0.31,0.61-1.01
	c2.31-12.21,8.68-52.2,10.35-63.44c2.5-16.85,6.61-26.62,12.95-30.79c3.25-2.15,6.95-2.68,11.01-1.6
	c14.93,3.96,12.66,21.42,10.26,39.9c-1.53,11.85-3.87,27.21-5.87,39.98c-0.75,4.8-1.45,9.23-2.04,12.98
	c-0.51,3.2-0.95,5.96-1.28,8.12c-0.05,0.27-0.09,0.54-0.13,0.79c-0.02,0.15-0.03,0.29-0.03,0.42c0.02,0.76,0.4,1.31,0.65,1.39
	c0.06,0.02,0.39-0.16,0.58-0.74c2.01-6.28,5.66-17.56,9.45-28.76c3.15-9.28,6.41-18.51,8.91-24.79c3.82-9.6,8.6-15.42,14.2-17.32
	c3.53-1.2,7.23-0.74,10.69,1.32c3.44,2.06,5.63,4.69,6.75,8.13c2.73,8.3-0.68,21.31-7.36,42.29
	C330.62,307.35,325.92,352.2,325.65,355.02z"/>
<g>
</g>
<g>
</g>
<g>
</g>
<g>
</g>
<g>
</g>
<g>
</g>
<g>
</g>
<g>
</g>
<g>
</g>
<g>
</g>
<g>
</g>
<g>
</g>
<g>
</g>
<g>
</g>
<g>
</g>
</svg>
