<svg id="Capa_1" enable-background="new 0 0 512 512" height="512" viewBox="0 0 512 512" width="512" xmlns="http://www.w3.org/2000/svg"><path d="m512 256c0 141.38-114.62 256-256 256-38.22 0-74.49-8.38-107.06-23.41-3.96-1.82-7.86-3.75-11.7-5.77-21.64-11.34-41.45-25.69-58.88-42.5-6.54-6.3-12.74-12.94-18.58-19.9-.03-.04-.07-.08-.1-.12-.09-.11-.19-.23-.28-.34-3.39-4.05-6.65-8.21-9.78-12.48-11.01-14.96-20.43-31.17-28-48.37-4.77-10.82-8.81-22.03-12.06-33.57 0-.01 0-.01-.01-.02-6.22-22.1-9.55-45.43-9.55-69.52 0-141.38 114.62-256 256-256s256 114.62 256 256z" fill="#62b4fd"/><path d="m130.588 346.241s11.724 33.582 43.521 18.523c1.771-.839 3.887-.293 4.996 1.322 1.325 1.928.706 4.578-1.341 5.712-11.688 6.477-47.713 23.436-65.4-2.299" fill="#231a16"/><path d="m208.291 383.995-38.958 26.517c-4.324 2.943-9.535 4.026-14.673 3.05l-25.631-4.87 2.343-12.326 25.63 4.87c1.846.351 3.719-.039 5.272-1.096l38.958-26.517c3.207-2.183 4.04-6.567 1.857-9.774l-31.459-46.218 10.372-7.06 31.459 46.218c6.075 8.926 3.756 21.131-5.17 27.206z" fill="#3d322c"/><path d="m148.94 488.59c-34.57-15.93-64.98-39.35-89.16-68.17-.03-.04-.07-.08-.1-.12-.09-.11-.19-.23-.28-.34-3.39-4.05-6.65-8.21-9.78-12.48l68.12-42.62 15.91 23.36c2.04 3.01 3.35 6.45 3.8 10.05z" fill="#a64c31"/><path d="m137.24 482.82c-21.64-11.34-41.45-25.69-58.88-42.5l-.45-2.2-3.81-5.61c-2.21-3.24-1.52-7.64 1.58-10.04l38.27-29.81c3.39-2.64 8.3-1.87 10.71 1.68 1.07 1.57 1.77 3.41 2.01 5.31z" fill="#d5694c"/><path d="m357.914 105.375h20.711v38.151h-20.711z" fill="#3d322c" transform="matrix(.827 -.563 .563 .827 -6.195 228.789)"/><path d="m255.787 116.864h271.962v27.796h-271.962z" fill="#3d322c" transform="matrix(.827 -.563 .563 .827 -5.673 243.106)"/><path d="m260.756 132.994h271.962v10.135h-271.962z" fill="#231a16" transform="matrix(.827 -.563 .563 .827 -8.919 247.167)"/><path d="m431.793 14.733c6.493 9.539 4.023 22.536-5.516 29.029l-155.738 106.004 12.88 18.923 173.011-117.761 13.8 20.275 20.275-13.8-35.42-52.038c-3.811-5.599-11.439-7.048-17.037-3.237l-4.432 3.016c-3.152 2.144-3.968 6.437-1.823 9.589z" fill="#3d322c"/><path d="m407 55.304 11.62 17.072c2.203 3.236 1.366 7.641-1.87 9.843l-3.893 2.65c-1.729 1.177-3.906 1.576-5.914.959-3.178-.983-6.761-.568-9.728 1.451l-20.039 13.64c-2.966 2.019-4.667 5.2-4.918 8.518-.163 2.094-1.333 3.973-3.062 5.15l-9.694 6.599c-1.729 1.177-3.912 1.58-5.914.959-3.178-.983-6.761-.568-9.728 1.451l-20.039 13.64c-2.966 2.019-4.666 5.2-4.918 8.517-.163 2.094-1.333 3.973-3.062 5.15l-69.354 47.207c-2.96 2.014-6.962 1.501-9.315-1.198-.192-.223-.366-.449-.526-.684-1.633-2.399-1.648-5.587.036-8.018l39.804-57.367c.538-.771 1.223-1.429 2.018-1.94l118.828-75.59c3.242-2.053 7.517-1.169 9.668 1.991z" fill="#d5694c"/><path d="m205.186 118.186h271.962v10.135h-271.962z" fill="#231a16" transform="matrix(.827 -.563 .563 .827 -10.219 213.332)"/><path d="m431.808 91.752 12.148 17.847c2.127 3.125 1.423 7.369-1.592 9.643l-115.176 86.784c-1.09.822-1.923 1.946-2.396 3.229l-6.797 18.66c-4.885 13.382-18.741 21.255-32.732 18.597l-3.238-.609c-1.557-.296-2.969-1.106-4.017-2.304l-12.845-14.68-12.449-14.232c-2.794-3.198-2.164-8.129 1.349-10.52l66.996-45.602c1.729-1.177 3.906-1.576 5.914-.959 3.178.983 6.761.568 9.728-1.451l20.039-13.64c2.966-2.019 4.667-5.2 4.918-8.518.156-2.09 1.333-3.973 3.062-5.15l9.694-6.599c1.729-1.177 3.906-1.576 5.914-.959 3.178.983 6.761.568 9.728-1.451l20.039-13.64c2.966-2.019 4.666-5.2 4.918-8.517.163-2.094 1.333-3.973 3.062-5.15l3.893-2.65c3.233-2.202 7.638-1.366 9.84 1.871z" fill="#d5694c"/><path d="m442.85 107.973 1.106 1.625c2.127 3.125 1.423 7.369-1.592 9.643l-115.176 86.784c-1.09.822-1.923 1.946-2.396 3.229l-6.797 18.66c-4.885 13.382-18.741 21.255-32.732 18.597l-3.238-.609c-1.557-.296-2.969-1.106-4.017-2.304l-12.845-14.68z" fill="#a64c31"/><path d="m413.1 64.266 5.521 8.111c2.203 3.236 1.366 7.641-1.87 9.843l-3.893 2.65c-1.729 1.177-3.906 1.576-5.914.959-3.178-.983-6.761-.568-9.728 1.451l-20.039 13.64c-2.966 2.019-4.667 5.2-4.918 8.518-.163 2.094-1.333 3.973-3.062 5.15l-9.694 6.599c-1.729 1.177-3.912 1.58-5.914.959-3.178-.983-6.761-.568-9.728 1.451l-20.039 13.64c-2.966 2.019-4.666 5.2-4.918 8.517-.163 2.094-1.333 3.973-3.062 5.15l-30.881 21.019-9.507-13.968z" fill="#a64c31"/><path d="m419.169 340.503-2.915 63.517c-.466 10.165-9.723 17.591-19.76 15.921-65.08-10.829-126.744-41.76-174.816-90.845-12.947-13.233-24.929-27.774-35.692-43.619l16.984-40.392 63.223-14.202c33.873 49.795 84.536 81.327 139.268 92.223 8.246 1.641 14.094 8.997 13.708 17.397z" fill="#231a16"/><path d="m408.305 340.003-2.913 63.522c-.086 1.91-1.051 3.629-2.648 4.717-.92.626-2.447 1.311-4.466.976-31.665-5.27-62.147-15.373-90.592-30.019-29.074-14.976-55.403-34.392-78.238-57.713-.017-.017-.034-.035-.051-.052-2.694-2.757-2.36-7.256.681-9.624l49.536-38.579c2.547-1.983 6.16-1.788 8.483.454 31.576 30.465 71.246 51.333 115.238 60.09 3.017.596 5.108 3.22 4.97 6.228z" fill="#3d322c"/><path d="m253.69 207.33 25.94 38.11-219.95 174.86c-22.89-27.32-40.19-59.5-50.12-94.76l.75-4.66c1.08-6.79 4.92-12.82 10.59-16.69l256.4-174.52 22.08 32.44-42.62 29.01c-4.96 3.37-6.49 9.89-3.75 15.08.2.39.43.77.68 1.13z" fill="#3d322c"/><path d="m20.9 304.19 19.61-13.35c-5.69 3.87-9.52 9.9-10.61 16.69l-8.28 51.58c-4.77-10.82-8.81-22.03-12.06-33.57 0-.01 0-.01-.01-.02l.75-4.64c1.08-6.79 4.93-12.83 10.6-16.69z" fill="#231a16"/><path d="m60.68 419.72-.9.7c-.03-.04-.07-.08-.1-.12-.09-.11-.19-.23-.28-.34.43-.06.86-.14 1.28-.24z" fill="#231a16"/><path d="m50.307 380.171c7.359 4.881 17.216 3.414 22.835-3.399l79.004-95.802c3.305-4.008 2.853-9.912-1.025-13.37-3.312-2.953-8.208-3.273-11.876-.776l-63.037 42.906c-5.405 3.679-9.128 9.355-10.348 15.779l-3.597 18.931-11.097 6.458c-11.044 6.426-11.506 22.211-.859 29.273z" fill="#231a16"/><path d="m185.519 262.254c-5.345 3.638-12.24 4.07-17.994 1.127-5.753-2.942-9.436-8.784-9.615-15.245l-.437-15.763c-.16-6.053 2.727-11.692 7.724-15.093l56.59-38.518 17.414 25.584c5.481 8.052 3.386 19.065-4.67 24.549z" fill="#231a16"/><path d="m219.578 190.383 12.708 18.67c2.89 4.246 1.79 10.033-2.462 12.927l-49.011 33.36c-6.085 4.142-14.338-.075-14.541-7.435l-.095-3.365-.242-8.739-.1-3.655c-.084-3.171 1.449-6.167 4.069-7.95z" fill="#594f4a"/><g fill="#231a16"><path d="m225.221 195.446 4.142 6.085-64.688 44.03-.124-8.819z"/><path d="m253.007 206.199c.203.388.432.768.681 1.135l3.963 5.822-43.134 29.359-4.707-6.915z"/><path d="m213.871 171.855h8.364v17.71h-8.364z" transform="matrix(.827 -.563 .563 .827 -63.888 154.017)"/><circle cx="98.553" cy="422.494" r="9.606"/><path d="m392.608 395.298c-1.227.835-2.77 1.207-4.345.92-31.55-5.756-91.953-23.01-142.003-73.893-2.268-2.305-2.237-6.013.068-8.28 2.314-2.275 6.013-2.236 8.28.068 47.788 48.584 105.567 65.077 135.755 70.585 3.182.58 5.29 3.63 4.709 6.811-.291 1.606-1.213 2.938-2.464 3.789z"/><path d="m394.678 359.943c-1.231.838-2.78 1.209-4.359.918-26.172-4.841-76.256-19.191-117.631-60.917-2.276-2.296-2.261-6.003.035-8.281 2.298-2.277 6.003-2.261 8.28.035 39.129 39.461 86.619 53.056 111.445 57.647 3.18.588 5.281 3.643 4.692 6.823-.294 1.599-1.215 2.926-2.462 3.775z"/></g></svg>